<svg height="512pt" viewBox="0 0 512 512" width="512pt" xmlns="http://www.w3.org/2000/svg"><path d="m55.167969 198.699219c30.417969 0 55.164062-24.746094 55.164062-55.167969 0-30.417969-24.746093-55.164062-55.164062-55.164062-30.421875 0-55.167969 24.746093-55.167969 55.164062 0 30.421875 24.746094 55.167969 55.167969 55.167969zm0 0" fill="#ffcfbe"/><path d="m191.734375 321.332031h-81.402344v-57.300781c0-30.46875-24.648437-55.164062-55.164062-55.164062-30.421875 0-55.167969 24.746093-55.167969 55.164062v80.335938c0 39.277343 31.953125 71.234374 71.234375 71.234374h57.296875v81.398438c0 8.285156 6.71875 15 15 15h48.203125c8.28125 0 15-6.714844 15-15v-160.667969c0-8.28125-6.714844-15-15-15zm0 0" fill="#ff7579"/><path d="m55.171875 88.371094v110.328125c30.417969 0 55.15625-24.75 55.15625-55.167969 0-30.421875-24.738281-55.160156-55.15625-55.160156zm0 0" fill="#f9bcaa"/><path d="m456.828125 198.699219c30.421875 0 55.167969-24.746094 55.167969-55.167969 0-30.417969-24.746094-55.164062-55.167969-55.164062-30.417969 0-55.164063 24.746093-55.164063 55.164062 0 30.421875 24.746094 55.167969 55.164063 55.167969zm0 0" fill="#f4ab97"/><path d="m456.832031 88.371094v110.328125c30.421875 0 55.160157-24.75 55.160157-55.167969 0-30.421875-24.738282-55.160156-55.160157-55.160156zm0 0" fill="#e79a85"/><path d="m191.730469 321.328125h-81.402344v-57.296875c0-30.472656-24.648437-55.160156-55.15625-55.160156v204.898437c5.15625 1.199219 10.539063 1.832031 16.058594 1.832031h57.300781v81.398438c0 8.28125 6.71875 15 15 15h48.199219c8.289062 0 15-6.71875 15-15v-160.671875c0-8.277344-6.710938-15-15-15zm0 0" fill="#fe4a60"/><path d="m305.265625 336.332031v160.667969c0 8.285156 6.71875 15 15 15h48.203125c8.28125 0 15-6.714844 15-15v-81.398438h57.296875c39.28125 0 71.234375-31.957031 71.234375-71.234374v-80.332032c0-30.421875-24.746094-55.167968-55.167969-55.167968-30.515625 0-55.164062 24.699218-55.164062 55.167968v57.300782h-81.402344c-8.285156-.003907-15 6.714843-15 14.996093zm0 0" fill="#3ab4fb"/><path d="m191.734375 206.734375h25.917969l27.742187 27.738281c5.855469 5.859375 15.355469 5.855469 21.210938 0l27.742187-27.738281h25.917969c25.988281 0 47.132813-21.144531 47.132813-47.136719v-112.464844c0-26.027343-21.054688-47.132812-47.132813-47.132812h-128.53125c-26.035156 0-47.132813 21.0625-47.132813 47.132812v112.46875c0 25.988282 21.140626 47.132813 47.132813 47.132813zm0 0" fill="#eff6fe"/><path d="m320.265625 273.132812h-128.53125c-8.285156 0-15 6.71875-15 15v208.867188c0 8.285156 6.714844 15 15 15h128.53125c8.285156 0 15-6.714844 15-15v-208.867188c0-8.28125-6.714844-15-15-15zm0 0" fill="#ffcc4b"/><path d="m320.269531 0h-64.269531v238.859375c3.839844 0 7.679688-1.460937 10.609375-4.390625l27.742187-27.738281h25.917969c25.992188 0 47.128907-21.140625 47.128907-47.128907v-112.472656c0-26.027344-21.058594-47.128906-47.128907-47.128906zm0 0" fill="#d9e4ef"/><path d="m207.800781 150.503906h33.199219c8.285156 0 15-6.71875 15-15 0-8.285156-6.714844-15-15-15h-33.199219c-8.285156 0-15 6.714844-15 15 0 8.28125 6.714844 15 15 15zm0 0" fill="#3ab4fb"/><path d="m207.800781 86.230469h96.398438c8.285156 0 15-6.714844 15-15 0-8.28125-6.714844-15-15-15h-96.398438c-8.285156 0-15 6.71875-15 15 0 8.285156 6.714844 15 15 15zm0 0" fill="#3ab4fb"/><path d="m319.199219 71.234375c0 8.28125-6.71875 15-15 15h-48.199219v-30h48.199219c8.28125 0 15 6.710937 15 15zm0 0" fill="#1d9cfd"/><path d="m320.269531 273.128906h-64.269531v238.871094h64.269531c8.28125 0 15-6.71875 15-15v-208.871094c0-8.277344-6.71875-15-15-15zm0 0" fill="#ffb826"/><path d="m512 344.367188v-80.335938c0-30.417969-24.746094-55.164062-55.167969-55.164062v204.882812c31.5625-7.308594 55.167969-35.632812 55.167969-69.382812zm0 0" fill="#1d9cfd"/></svg>